<svg id="Layer_2" data-name="Layer 2" xmlns="http://www.w3.org/2000/svg" width="24" height="24" viewBox="0 0 24 24">
  <g id="moon">
    <rect id="Rectangle_1" data-name="Rectangle 1" width="24" height="24" fill="#212121" opacity="0"/>
    <path id="Path_1" data-name="Path 1" d="M12.3,22h-.1a10.31,10.31,0,0,1-7.34-3.15,10.46,10.46,0,0,1-.26-14,10.13,10.13,0,0,1,4-2.74A.985.985,0,0,1,9.9,3.33a8.4,8.4,0,0,0,1.94,8.81,8.47,8.47,0,0,0,8.83,1.94,1,1,0,0,1,1.27,1.29A10.16,10.16,0,0,1,19.6,19a10.28,10.28,0,0,1-7.3,3Z" fill="#212121"/>
  </g>
</svg>
