<svg id="Layer_2" data-name="Layer 2" xmlns="http://www.w3.org/2000/svg" width="24" height="24" viewBox="0 0 24 24">
  <g id="sun">
    <rect id="Rectangle_3" data-name="Rectangle 3" width="24" height="24" transform="translate(24 24) rotate(180)" fill="#fff" opacity="0"/>
    <path id="Path_3" data-name="Path 3" d="M12,6a1,1,0,0,0,1-1V3a1,1,0,1,0-2,0V5A1,1,0,0,0,12,6Z" fill="#fff"/>
    <path id="Path_4" data-name="Path 4" d="M21,11H19a1,1,0,0,0,0,2h2a1,1,0,0,0,0-2Z" fill="#fff"/>
    <path id="Path_5" data-name="Path 5" d="M6,12a1,1,0,0,0-1-1H3a1,1,0,0,0,0,2H5A1,1,0,0,0,6,12Z" fill="#fff"/>
    <path id="Path_6" data-name="Path 6" d="M6.22,5A1.012,1.012,0,0,0,4.83,6.47L6.27,7.86A1.022,1.022,0,0,0,7.72,6.42Z" fill="#fff"/>
    <path id="Path_7" data-name="Path 7" d="M17,8.14a1,1,0,0,0,.69-.28l1.44-1.39A1,1,0,0,0,17.78,5L16.34,6.42A1.018,1.018,0,0,0,17,8.14Z" fill="#fff"/>
    <path id="Path_8" data-name="Path 8" d="M12,18a1,1,0,0,0-1,1v2a1,1,0,0,0,2,0V19A1,1,0,0,0,12,18Z" fill="#fff"/>
    <path id="Path_9" data-name="Path 9" d="M17.73,16.14a1,1,0,1,0-1.39,1.44L17.78,19a1.008,1.008,0,0,0,1.41-1.44Z" fill="#fff"/>
    <path id="Path_10" data-name="Path 10" d="M6.27,16.14,4.83,17.53A1.012,1.012,0,0,0,6.22,19l1.44-1.39a1,1,0,0,0-1.39-1.44Z" fill="#fff"/>
    <path id="Path_11" data-name="Path 11" d="M12,8a4,4,0,1,0,4,4A4,4,0,0,0,12,8Z" fill="#fff"/>
  </g>
</svg>
