<svg id="Layer_2" data-name="Layer 2" xmlns="http://www.w3.org/2000/svg" width="18" height="18" viewBox="0 0 18 18">
  <g id="code">
    <rect id="Rectangle_14" data-name="Rectangle 14" width="18" height="18" transform="translate(18) rotate(90)" fill="#656565" opacity="0"/>
    <path id="Path_14" data-name="Path 14" d="M6.96,5.171a.747.747,0,0,0-1.053.1L2.172,9.75a.747.747,0,0,0,0,.949L5.78,15.18a.749.749,0,1,0,1.165-.941L3.711,10.228l3.346-4a.747.747,0,0,0-.1-1.053Z" transform="translate(-0.507 -1.265)" fill="#A8A8A8"/>
    <path id="Path_15" data-name="Path 15" d="M20.064,9.757l-3.57-4.482a.749.749,0,1,0-1.165.941l3.189,4.011-3.346,4.011a.745.745,0,0,0,1.15.949l3.735-4.482a.747.747,0,0,0,.007-.949Z" transform="translate(-3.795 -1.264)" fill="#A8A8A8"/>
  </g>
</svg>
