<svg id="Layer_2" data-name="Layer 2" xmlns="http://www.w3.org/2000/svg" width="18" height="18" viewBox="0 0 18 18">
  <g id="star">
    <rect id="Rectangle_12" data-name="Rectangle 12" width="18" height="18" transform="translate(18) rotate(90)" fill="#a8a8a8" opacity="0"/>
    <path id="Path_12" data-name="Path 12" d="M13.55,16.091a.742.742,0,0,1-.341-.082l-3.783-1.98L5.644,16.01a.742.742,0,0,1-1.075-.786l.742-4.176L2.254,8.081A.731.731,0,0,1,2.67,6.835L6.9,6.219l1.862-3.8a.742.742,0,0,1,1.335,0l1.884,3.8,4.228.616a.731.731,0,0,1,.415,1.246L13.565,11.04l.742,4.176a.734.734,0,0,1-.757.875Z" transform="translate(-0.526 -0.516)" fill="#a8a8a8"/>
  </g>
</svg>
